<?xml version="1.0" encoding="UTF-8"?><svg id="uuid-207aa8de-a061-4ce5-86af-d0534059d23a" xmlns="http://www.w3.org/2000/svg" xmlns:xlink="http://www.w3.org/1999/xlink" viewBox="0 0 170.08 50"><defs><linearGradient id="uuid-0e1c1552-f2c8-4df9-81be-b8262dbfa225" x1="5.61" y1="25" x2="45.61" y2="25" gradientUnits="userSpaceOnUse"><stop offset="0" stop-color="#ff006e"/><stop offset="1" stop-color="#b82f67"/></linearGradient></defs><g id="uuid-c8cc6029-31ea-49c1-8455-f120d47eaade"><path d="M52.37,36.56v-5.6h.54v2.57h2.89v-2.57h.54v5.6h-.54v-2.54h-2.89v2.54h-.54Z"/><path d="M64.63,35.83c-.53.57-1.22.85-2.09.85s-1.57-.28-2.09-.85c-.53-.57-.79-1.26-.79-2.07s.26-1.5.79-2.07c.52-.57,1.22-.85,2.09-.85s1.57.28,2.09.85c.53.57.79,1.26.79,2.07s-.26,1.5-.79,2.07ZM60.85,35.48c.42.47.98.71,1.69.71s1.27-.24,1.69-.71c.42-.47.63-1.04.63-1.72s-.21-1.25-.63-1.72c-.42-.47-.98-.71-1.69-.71s-1.27.24-1.69.71c-.42.47-.63,1.05-.62,1.72,0,.67.2,1.24.62,1.72Z"/><path d="M68.73,36.56v-5.6h.53l2.05,4.85,2.06-4.85h.52v5.6h-.52v-4.46l-1.84,4.46h-.43l-1.84-4.49v4.49h-.52Z"/><path d="M77.55,36.56v-5.6h.53l2.05,4.85,2.06-4.85h.52v5.6h-.52v-4.46l-1.84,4.46h-.43l-1.84-4.49v4.49h-.52Z"/><path d="M90.73,36.56v-5.6h.54v5.6h-.54Z"/><path d="M94.95,36.56v-5.6h.58l2.82,4.7v-4.7h.52v5.6h-.58l-2.82-4.71v4.71h-.52Z"/><path d="M103.63,36.56v-5.09h-1.7v-.51h3.96v.51h-1.71v5.09h-.54Z"/><path d="M108.95,36.56v-5.6h3.14v.49h-2.59v2.08h2.59v.5h-2.59v2.04h2.59v.5h-3.14Z"/><path d="M119.43,32.87c0,.44-.12.83-.34,1.15s-.53.55-.91.67l1.18,1.87h-.62l-1.12-1.78h-1.44v1.78h-.54v-5.6h1.95c.53,0,.97.18,1.32.54.35.36.52.81.52,1.37ZM116.18,31.45v2.83h1.38c.38,0,.7-.13.95-.4.25-.27.38-.61.38-1.02s-.12-.75-.38-1.02c-.25-.27-.57-.4-.95-.4h-1.38Z"/><path d="M125.94,36.56l-.33-1.01h-2.48l-.32,1.01h-.58l1.9-5.6h.49l1.9,5.6h-.58ZM123.29,35.07h2.17l-1.09-3.38-1.08,3.38Z"/><path d="M131.96,36.68c-.88,0-1.58-.28-2.1-.83-.52-.55-.78-1.25-.78-2.09s.26-1.53.78-2.09c.52-.55,1.22-.83,2.1-.83.72,0,1.31.17,1.77.52.46.34.75.8.88,1.36h-.59c-.12-.43-.36-.77-.71-1.02-.35-.25-.8-.38-1.35-.38-.71,0-1.28.23-1.7.69s-.62,1.04-.62,1.74.21,1.28.62,1.74c.42.46.98.69,1.7.69.55,0,1-.12,1.35-.37.35-.25.59-.59.71-1.02h.59c-.13.57-.42,1.02-.88,1.37-.46.35-1.05.52-1.77.52Z"/><path d="M138.57,36.56v-5.09h-1.7v-.51h3.96v.51h-1.71v5.09h-.54Z"/><path d="M143.88,36.56v-5.6h.54v5.6h-.54Z"/><path d="M149.39,36.56l-1.94-5.6h.58l1.62,4.77,1.62-4.77h.58l-1.94,5.6h-.52Z"/><path d="M154.86,36.56v-5.6h3.14v.49h-2.59v2.08h2.59v.5h-2.59v2.04h2.59v.5h-3.14Z"/></g><g id="uuid-5b0c2e1a-e932-4df9-8359-73254afa79fa"><path d="M56.14,25.43c-1.48,0-2.64-.38-3.47-1.13s-1.26-1.8-1.26-3.16h2.79c0,.65.17,1.16.53,1.53.35.37.83.55,1.44.55.52,0,.91-.11,1.2-.34s.42-.56.42-.98c0-.37-.11-.66-.32-.89s-.59-.44-1.14-.66l-2.17-.84c-1.63-.61-2.44-1.7-2.44-3.29,0-1.07.39-1.92,1.16-2.56.77-.64,1.82-.96,3.12-.96s2.4.35,3.2,1.04c.8.69,1.2,1.62,1.2,2.78h-2.79c0-.56-.14-.99-.43-1.29-.29-.3-.7-.45-1.24-.45-.45,0-.8.11-1.06.32s-.39.5-.39.87c0,.33.13.62.38.85.25.24.68.47,1.27.71l2,.79c1.62.63,2.42,1.76,2.42,3.39,0,1.12-.4,2.02-1.21,2.7-.81.68-1.88,1.01-3.21,1.01Z"/><path d="M72.93,23.58c-1.17,1.23-2.73,1.85-4.68,1.85s-3.51-.62-4.68-1.85-1.75-2.74-1.75-4.51.58-3.28,1.75-4.52c1.17-1.23,2.73-1.85,4.68-1.85s3.51.62,4.68,1.85c1.17,1.23,1.75,2.74,1.75,4.52s-.58,3.28-1.75,4.51ZM68.25,22.94c1.1,0,1.96-.37,2.59-1.11.62-.74.94-1.66.94-2.76s-.31-2.02-.94-2.76c-.62-.74-1.49-1.11-2.59-1.11s-1.98.37-2.61,1.11c-.62.74-.93,1.66-.92,2.76-.01,1.1.29,2.02.92,2.76.62.74,1.49,1.11,2.61,1.11Z"/><path d="M82.58,25.43c-1.95,0-3.51-.59-4.7-1.78-1.18-1.19-1.77-2.71-1.77-4.58s.59-3.4,1.77-4.58c1.18-1.19,2.75-1.78,4.7-1.78,1.74,0,3.16.43,4.26,1.28s1.72,2,1.88,3.43h-2.96c-.16-.69-.52-1.23-1.07-1.63-.55-.4-1.25-.59-2.1-.59-1.12,0-2,.35-2.63,1.04-.63.69-.95,1.64-.95,2.83s.32,2.14.95,2.83c.63.69,1.51,1.04,2.63,1.04.85,0,1.55-.2,2.1-.59.55-.4.91-.94,1.07-1.63h2.96c-.16,1.43-.79,2.58-1.88,3.43-1.09.85-2.51,1.28-4.26,1.28Z"/><path d="M91.32,25.09v-12.04h2.79v12.04h-2.79Z"/><path d="M104.59,25.09l-.41-1.46h-4.27l-.41,1.46h-2.94l4.08-12.04h2.8l4.09,12.04h-2.94ZM100.53,21.44h3.03l-1.51-5.35-1.51,5.35Z"/><path d="M109.99,25.09v-12.04h2.79v9.56h4.47v2.48h-7.26Z"/><path d="M124.97,25.09v-12.04h7.36v2.34h-4.58v3.25h4.58v2.29h-4.58v4.16h-2.79Z"/><path d="M135.4,25.09v-12.04h7.36v2.24h-4.58v2.73h4.58v2.18h-4.58v2.65h4.58v2.24h-7.36Z"/><path d="M146.17,25.09v-12.04h7.36v2.24h-4.58v2.73h4.58v2.18h-4.58v2.65h4.58v2.24h-7.36Z"/><path d="M156.76,25.09v-12.04h4.54c1.87,0,3.36.58,4.47,1.74s1.67,2.59,1.67,4.28-.55,3.12-1.66,4.28c-1.11,1.16-2.6,1.74-4.48,1.74h-4.54ZM159.55,22.75h1.5c1.12,0,1.99-.36,2.61-1.08.61-.72.92-1.58.92-2.61s-.31-1.89-.92-2.61c-.61-.72-1.48-1.08-2.61-1.08h-1.5v7.36Z"/></g><g id="uuid-d1119e5c-3780-4fd0-9626-5932ca544afa"><circle id="uuid-de67bf32-cb56-4988-8c46-12b9bf8e3ecc" cx="25.61" cy="25" r="20" fill="url(#uuid-0e1c1552-f2c8-4df9-81be-b8262dbfa225)"/><path id="uuid-7ef6cf17-9a81-4738-a393-5266f6fcaf98" d="M25.14,29.5c-.59,1.52-.59,3.02.07,4.5.66,1.48,1.76,2.51,3.28,3.08,2.57.96,5.43-.02,6.89-2.38,1.41-2.28,1.08-5.3-.93-7.21-.99-.94-2.16-1.48-3.52-1.58-1.9-.14-3.51.53-4.81,1.93-1.21-.74-2.41-1.48-3.61-2.22.16-.45.27-.88.3-1.34.04-.46-.04-.92-.09-1.37.08-.04.14-.07.19-.09,1.48-.68,2.95-1.37,4.43-2.05.17-.08.17-.08.3.06.88.92,1.96,1.35,3.24,1.24.62-.05,1.2-.27,1.73-.61,1.29-.84,1.97-2.41,1.68-3.91-.21-1.09-.77-1.94-1.69-2.54-.81-.53-1.7-.73-2.66-.59-.93.13-1.72.56-2.33,1.27-.78.89-1.11,1.93-.92,3.11,0,.03,0,.07,0,.12-1.6.74-3.2,1.48-4.8,2.22-1.77-2.36-4.88-2.45-6.79-.95-2.04,1.59-2.5,4.37-1.08,6.49.7,1.04,1.66,1.73,2.88,2.01,1.79.41,3.32-.11,4.63-1.37,1.21.74,2.4,1.47,3.6,2.21Z" fill="#fff"/></g></svg>
